{"asset":{"generator":"Khronos glTF Blender I/O v1.2.75","version":"2.0"},"scene":0,"scenes":[{"name":"Scene","nodes":[0,1,2,3,4,5,6,7,8,9,10,11,12,13,14,15]}],"nodes":[{"name":"Light.001","rotation":[0.16907575726509094,0.7558803558349609,-0.27217137813568115,0.570947527885437],"translation":[4.076245307922363,5.903861999511719,-1.0054539442062378]},{"name":"Camera.001","rotation":[0.483536034822464,0.33687159419059753,-0.20870360732078552,0.7804827094078064],"translation":[7.358891487121582,4.958309173583984,6.925790786743164]},{"name":"Viewpoint","rotation":[0,0.7071067094802856,-0.7071068286895752,-3.0908616110991716e-8],"translation":[-0.05339999869465828,0.19644999504089355,-19.566999435424805]},{"name":"DirectLight","rotation":[-0.7071068286895752,0,0,0.7071067094802856]},{"name":"DirectLight.001","rotation":[-0.09428954869508743,-0.06534267216920853,0.5658344030380249,0.8164994120597839]},{"name":"DirectLight.002","rotation":[0.17591987550258636,-0.42470842599868774,-0.8204731941223145,0.3398510217666626]},{"name":"DirectLight.003","rotation":[0,0.7071067094802856,-0.7071068286895752,-3.0908616110991716e-8]},{"mesh":0,"name":"Shape_Sphere","rotation":[0,0.7071067094802856,-0.7071068286895752,-3.0908616110991716e-8]},{"mesh":1,"name":"Shape_Sphere.001","rotation":[0,0.7071067094802856,-0.7071068286895752,-3.0908616110991716e-8],"translation":[-0.2773999869823456,0.8928999900817871,-0.25440001487731934]},{"mesh":2,"name":"Shape_Sphere.002","rotation":[0,0.7071067094802856,-0.7071068286895752,-3.0908616110991716e-8],"translation":[-0.6068000197410583,-0.23829999566078186,0.7168999910354614]},{"mesh":3,"name":"Shape_Cylinder","rotation":[-0.10326196253299713,0.5983863472938538,-0.787786602973938,0.10326181352138519],"translation":[-0.13154199719429016,0.4234110116958618,-0.1206360012292862]},{"mesh":4,"name":"Shape_Cylinder.001","rotation":[-0.5108047723770142,-0.6085629463195801,-0.32834163308143616,0.5108046531677246],"translation":[-0.17734700441360474,0.5708490014076233,-0.16264300048351288]},{"mesh":5,"name":"Shape_Cylinder.002","rotation":[-0.36057010293006897,0.8601809740066528,-0.008194087073206902,0.3605700731277466],"translation":[-0.2877430021762848,-0.11300099641084671,0.3399519920349121]},{"mesh":6,"name":"Shape_Cylinder.003","rotation":[-0.28051161766052246,-0.22669722139835358,0.8895138502120972,0.2805115878582001],"translation":[-0.3879390060901642,-0.15234999358654022,0.4583280086517334]},{"name":"Light","rotation":[0.16907575726509094,0.7558803558349609,-0.27217137813568115,0.570947527885437],"translation":[4.076245307922363,5.903861999511719,-1.0054539442062378]},{"name":"Camera","rotation":[0.483536034822464,0.33687159419059753,-0.20870360732078552,0.7804827094078064],"translation":[7.358891487121582,4.958309173583984,6.925790786743164]}],"materials":[{"doubleSided":true,"emissiveFactor":[0,0,0],"name":"Material.001","pbrMetallicRoughness":{"baseColorFactor":[0.8000000715255737,0,0.048274487257003784,1],"metallicFactor":0,"roughnessFactor":0.5}},{"doubleSided":true,"emissiveFactor":[0,0,0],"name":"Material.004","pbrMetallicRoughness":{"baseColorFactor":[1,1,1,1],"metallicFactor":0,"roughnessFactor":0.5}},{"doubleSided":true,"emissiveFactor":[0,0,0],"name":"Material.002","pbrMetallicRoughness":{"baseColorFactor":[0.8000000715255737,0,0.008021443150937557,1],"metallicFactor":0,"roughnessFactor":0.5}},{"doubleSided":true,"emissiveFactor":[0,0,0],"name":"Material.003","pbrMetallicRoughness":{"baseColorFactor":[0.8000000715255737,0,0.01938433013856411,1],"metallicFactor":0,"roughnessFactor":0.5}}],"meshes":[{"name":"Shape_Sphere.001","primitives":[{"attributes":{"POSITION":0,"NORMAL":1,"TEXCOORD_0":2},"indices":3,"material":0}]},{"name":"Shape_Sphere.002","primitives":[{"attributes":{"POSITION":4,"NORMAL":5,"TEXCOORD_0":6},"indices":7,"material":1}]},{"name":"Shape_Sphere","primitives":[{"attributes":{"POSITION":8,"NORMAL":9,"TEXCOORD_0":10},"indices":7}]},{"name":"Shape_Cylinder","primitives":[{"attributes":{"POSITION":11,"NORMAL":12,"TEXCOORD_0":13},"indices":14,"material":2}]},{"name":"Shape_Cylinder.001","primitives":[{"attributes":{"POSITION":15,"NORMAL":16,"TEXCOORD_0":17},"indices":14}]},{"name":"Shape_Cylinder.002","primitives":[{"attributes":{"POSITION":18,"NORMAL":19,"TEXCOORD_0":20},"indices":14,"material":3}]},{"name":"Shape_Cylinder.003","primitives":[{"attributes":{"POSITION":21,"NORMAL":22,"TEXCOORD_0":23},"indices":24}]}],"accessors":[{"bufferView":0,"componentType":5126,"count":1420,"max":[0.44999998807907104,0.44999998807907104,0.44999998807907104],"min":[-0.44999998807907104,-0.44999998807907104,-0.44999998807907104],"type":"VEC3"},{"bufferView":1,"componentType":5126,"count":1420,"type":"VEC3"},{"bufferView":2,"componentType":5126,"count":1420,"type":"VEC2"},{"bufferView":3,"componentType":5123,"count":1440,"type":"SCALAR"},{"bufferView":4,"componentType":5126,"count":1436,"max":[0.36000001430511475,0.36000001430511475,0.36000001430511475],"min":[-0.36000001430511475,-0.36000001430511475,-0.36000001430511475],"type":"VEC3"},{"bufferView":5,"componentType":5126,"count":1436,"type":"VEC3"},{"bufferView":6,"componentType":5126,"count":1436,"type":"VEC2"},{"bufferView":7,"componentType":5123,"count":1440,"type":"SCALAR"},{"bufferView":8,"componentType":5126,"count":1436,"max":[0.36000001430511475,0.36000001430511475,0.36000001430511475],"min":[-0.36000001430511475,-0.36000001430511475,-0.36000001430511475],"type":"VEC3"},{"bufferView":9,"componentType":5126,"count":1436,"type":"VEC3"},{"bufferView":10,"componentType":5126,"count":1436,"type":"VEC2"},{"bufferView":11,"componentType":5126,"count":72,"max":[0.23999999463558197,0.23999999463558197,0.07883500307798386],"min":[-0.23999999463558197,-0.23999999463558197,-0.07883500307798386],"type":"VEC3"},{"bufferView":12,"componentType":5126,"count":72,"type":"VEC3"},{"bufferView":13,"componentType":5126,"count":72,"type":"VEC2"},{"bufferView":14,"componentType":5123,"count":96,"type":"SCALAR"},{"bufferView":15,"componentType":5126,"count":72,"max":[0.23999999463558197,0.23999999463558197,0.08116699755191803],"min":[-0.23999999463558197,-0.23999999463558197,-0.08116699755191803],"type":"VEC3"},{"bufferView":16,"componentType":5126,"count":72,"type":"VEC3"},{"bufferView":17,"componentType":5126,"count":72,"type":"VEC2"},{"bufferView":18,"componentType":5126,"count":72,"max":[0.23999999463558197,0.23999999463558197,0.07883500307798386],"min":[-0.23999999463558197,-0.23999999463558197,-0.07883500307798386],"type":"VEC3"},{"bufferView":19,"componentType":5126,"count":72,"type":"VEC3"},{"bufferView":20,"componentType":5126,"count":72,"type":"VEC2"},{"bufferView":21,"componentType":5126,"count":80,"max":[0.23999999463558197,0.23999999463558197,0.08116649836301804],"min":[-0.23999999463558197,-0.23999999463558197,-0.08116649836301804],"type":"VEC3"},{"bufferView":22,"componentType":5126,"count":80,"type":"VEC3"},{"bufferView":23,"componentType":5126,"count":80,"type":"VEC2"},{"bufferView":24,"componentType":5123,"count":96,"type":"SCALAR"}],"bufferViews":[{"buffer":0,"byteLength":17040,"byteOffset":0},{"buffer":0,"byteLength":17040,"byteOffset":17040},{"buffer":0,"byteLength":11360,"byteOffset":34080},{"buffer":0,"byteLength":2880,"byteOffset":45440},{"buffer":0,"byteLength":17232,"byteOffset":48320},{"buffer":0,"byteLength":17232,"byteOffset":65552},{"buffer":0,"byteLength":11488,"byteOffset":82784},{"buffer":0,"byteLength":2880,"byteOffset":94272},{"buffer":0,"byteLength":17232,"byteOffset":97152},{"buffer":0,"byteLength":17232,"byteOffset":114384},{"buffer":0,"byteLength":11488,"byteOffset":131616},{"buffer":0,"byteLength":864,"byteOffset":143104},{"buffer":0,"byteLength":864,"byteOffset":143968},{"buffer":0,"byteLength":576,"byteOffset":144832},{"buffer":0,"byteLength":192,"byteOffset":145408},{"buffer":0,"byteLength":864,"byteOffset":145600},{"buffer":0,"byteLength":864,"byteOffset":146464},{"buffer":0,"byteLength":576,"byteOffset":147328},{"buffer":0,"byteLength":864,"byteOffset":147904},{"buffer":0,"byteLength":864,"byteOffset":148768},{"buffer":0,"byteLength":576,"byteOffset":149632},{"buffer":0,"byteLength":960,"byteOffset":150208},{"buffer":0,"byteLength":960,"byteOffset":151168},{"buffer":0,"byteLength":640,"byteOffset":152128},{"buffer":0,"byteLength":192,"byteOffset":152768}],"buffers":[{"byteLength":152960,"uri":"data:application/octet-stream;base64,"}]}